<?xml version="1.0" encoding="UTF-8" standalone="no"?>
<svg
   xmlns:dc="http://purl.org/dc/elements/1.1/"
   xmlns:cc="http://creativecommons.org/ns#"
   xmlns:rdf="http://www.w3.org/1999/02/22-rdf-syntax-ns#"
   xmlns:svg="http://www.w3.org/2000/svg"
   xmlns="http://www.w3.org/2000/svg"
   xmlns:sodipodi="http://sodipodi.sourceforge.net/DTD/sodipodi-0.dtd"
   xmlns:inkscape="http://www.inkscape.org/namespaces/inkscape"
   width="800"
   height="182.186"
   id="svg3336"
   version="1.1"
   inkscape:version="0.91 r13725"
   sodipodi:docname="rotated-book2a.svg">
  <metadata
     id="metadata3361">
    <rdf:RDF>
      <cc:Work
         rdf:about="">
        <dc:format>image/svg+xml</dc:format>
        <dc:type
           rdf:resource="http://purl.org/dc/dcmitype/StillImage" />
        <dc:title></dc:title>
      </cc:Work>
    </rdf:RDF>
  </metadata>
  <defs
     id="defs3359" />
  <sodipodi:namedview
     pagecolor="#ffffff"
     bordercolor="#666666"
     borderopacity="1"
     objecttolerance="10"
     gridtolerance="10"
     guidetolerance="10"
     inkscape:pageopacity="0"
     inkscape:pageshadow="2"
     inkscape:window-width="1920"
     inkscape:window-height="1018"
     id="namedview3357"
     showgrid="false"
     inkscape:zoom="1.1677626"
     inkscape:cx="301.28221"
     inkscape:cy="143.97555"
     inkscape:window-x="-8"
     inkscape:window-y="-8"
     inkscape:window-maximized="1"
     inkscape:current-layer="svg3336" />
  <g
     id="g3338">
    <title
       id="title3340">Layer 1</title>
    <g
       transform="matrix(0.98420859,0.17701259,-0.17701259,0.98420859,20.934542,-29.446077)"
       id="svg_1">
      <path
         id="svg_2"
         d="m 329.08402,86.198997 c 3.078,-0.744995 1.92199,2.745003 5,2 1.63998,2.139999 -2.54902,4.854004 -1,9.999001 l -1.83301,-0.5 -1.16699,1.5 c -2.23502,-0.431 -0.405,-4.928001 -1,-7 l 0.444,-2.722 -2.444,-1.277 c 0,-0.333 0,-0.667 0,-1 l 1.5,0.5 0.5,-1.5 z"
         inkscape:connector-curvature="0"
         style="clip-rule:evenodd;fill-rule:evenodd" />
      <path
         id="svg_3"
         d="m 331.91699,99.696999 1.16699,-1.5 c 6.86902,4.129001 12.84101,9.156001 18.99701,13.999001 0.69699,5.029 -1.69601,6.969 -1,11.998 -30.64599,2.781 -58.67001,6.19 -87.988,9.99901 -9.23101,1.19899 -19.86001,1.67399 -27.997,3.99899 -12.091,3.45601 -16.466,12.16001 -30.996,13.999 -7.09801,0.897 -12.355,-1.795 -19.99699,-1 -9.24302,0.96099 -20.28501,7.33801 -29.99701,10.998 -28.904,10.895 -59.090999,22.763 -84.988994,35.996 C 61.340999,190.209 56.881,179.68201 51.118999,170.188 34.429,142.68599 16.111,114.331 -0.874,86.198998 c -0.895,-3.227997 3.261,-1.404999 4,-3 l 1.5,0.5 1.5,-0.5 C 26.993,117.658 48.488998,151.48801 70.117996,185.18601 c 0.595001,-2.071 -1.235992,-6.56801 1,-6.99901 l 1.167007,1.5 1.832993,-0.5 c 1.327003,4.384 -1.889999,9.365 -1,9.99901 C 109.804,171.21201 137.715,144.46201 193.103,145.191 c -0.848,-11.512 5.246,-16.08401 8.998,-22.997 -1.58299,-0.083 -3.81301,0.481 -3.999,-1 l 0.5,-1.499 -0.5,-1.5 c 0.851,0.184 0.943,-0.39 1,-1 l 1.35599,-1.214 -0.35599,-1.786 c 3.86499,0.135 3.943,4.056 6.999,5 l 1.214,1.356 1.78501,-0.356 c -0.668,4.331 -4.627,5.371 -4.99901,9.99801 4.71001,-0.28902 7.07899,-2.91901 12.998,-1.99901 3.942,1.05701 3.812,6.18801 6,8.998 19.52701,-24.133 67.57999,-19.741 109.98599,-20.997 -1.18899,-5.811 -4.15399,-9.844 -4,-16.998001 l 1.832,0.5 z"
         inkscape:connector-curvature="0"
         style="clip-rule:evenodd;fill-rule:evenodd" />
      <path
         id="svg_4"
         d="m 4.958,81.699997 -1.833,0.5 c 0.083,-1.583 -0.481,-3.813995 1,-4 l 1.167,1.5 1.833,-0.5 c -0.083,1.583 0.481,3.813004 -1,4 l -1.167,-1.5 z"
         inkscape:connector-curvature="0"
         style="clip-rule:evenodd;fill-rule:evenodd" />
      <g
         id="svg_5">
        <path
           id="svg_6"
           d="m 331.25101,97.697998 c 0.22201,0.667 0.444,1.333 0.66601,2"
           inkscape:connector-curvature="0"
           style="clip-rule:evenodd;fill:none;fill-rule:evenodd;stroke:#000000;stroke-width:3.16190004;stroke-linecap:round" />
        <path
           id="svg_7"
           d="m 4.625,83.699997 c 0.04,-0.667 0.184,-1.333 0.333,-2"
           inkscape:connector-curvature="0"
           style="clip-rule:evenodd;fill:none;fill-rule:evenodd;stroke:#000000;stroke-width:3.08179998;stroke-linecap:round" />
        <path
           id="svg_8"
           d="M 5.292,79.699997 C 6.136,74.763001 6.877,68.432999 12.024,66.100998"
           inkscape:connector-curvature="0"
           style="clip-rule:evenodd;fill:none;fill-rule:evenodd;stroke:#000000;stroke-width:3.33870006;stroke-linecap:round" />
        <path
           id="svg_9"
           d="M 12.024,66.101997 C 43.301998,45.346 87.078003,12.375999 123.468,42.989997"
           inkscape:connector-curvature="0"
           style="clip-rule:evenodd;fill:none;fill-rule:evenodd;stroke:#000000;stroke-width:2.28069997;stroke-linecap:round" />
        <path
           id="svg_10"
           d="M 123.468,42.989998 C 145.00101,7.034001 192.063,24.878 226.442,17.247999 c 33.80901,23.763002 69.09401,45.902002 102.14299,70.451998"
           inkscape:connector-curvature="0"
           style="clip-rule:evenodd;fill:none;fill-rule:evenodd;stroke:#000000;stroke-width:2.32800007;stroke-linecap:round" />
        <path
           id="svg_11"
           d="m 208.31399,120.552 c 27.56101,-37.675001 80.913,-24.113996 121.215,-31.075003"
           inkscape:connector-curvature="0"
           style="clip-rule:evenodd;fill:none;fill-rule:evenodd;stroke:#000000;stroke-width:3.98990011;stroke-linecap:round" />
        <path
           id="svg_12"
           d="m 123.468,42.989998 c 26.053,23.890999 50.821,49.292 76.98999,72.991002"
           inkscape:connector-curvature="0"
           style="clip-rule:evenodd;fill:none;fill-rule:evenodd;stroke:#000000;stroke-width:3.0381999;stroke-linecap:round" />
        <path
           id="svg_13"
           d="M 12.024,66.101997 C 34.041,97.030998 52.355999,130.91301 74.115997,162.19"
           inkscape:connector-curvature="0"
           style="clip-rule:evenodd;fill:none;fill-rule:evenodd;stroke:#000000;stroke-width:2.61560011;stroke-linecap:round" />
        <path
           id="svg_14"
           d="M 74.116997,162.18899 C 113.904,144.06399 152.03699,113.51199 198.601,119.695"
           inkscape:connector-curvature="0"
           style="clip-rule:evenodd;fill:none;fill-rule:evenodd;stroke:#000000;stroke-width:2.98049998;stroke-linecap:round" />
        <path
           id="svg_15"
           d="m 74.116997,162.18899 c -0.556,5.836 -0.93,11.69301 -1.833,17.49801"
           inkscape:connector-curvature="0"
           style="clip-rule:evenodd;fill:none;fill-rule:evenodd;stroke:#000000;stroke-width:3.72819996;stroke-linecap:round" />
      </g>
    </g>
  </g>
  <text
     xml:space="preserve"
     style="font-style:normal;font-weight:normal;font-size:40px;line-height:125%;font-family:sans-serif;letter-spacing:0px;word-spacing:0px;fill:#000000;fill-opacity:1;stroke:none;stroke-width:1px;stroke-linecap:butt;stroke-linejoin:miter;stroke-opacity:1"
     x="369.9382"
     y="109.39724"
     id="textBiblio"
     sodipodi:linespacing="125%"><tspan
       sodipodi:role="line"
       id="tspan3365"
       x="369.9382"
       y="109.39724"
       style="font-size:60px;letter-spacing:1px"
       dx="0.15000001">BIBLIOTHECA</tspan></text>
  <flowRoot
     xml:space="preserve"
     id="flowRoot3367"
     style="fill:black;stroke:none;stroke-opacity:1;stroke-width:1px;stroke-linejoin:miter;stroke-linecap:butt;fill-opacity:1;font-family:sans-serif;font-style:normal;font-weight:normal;font-size:40px;line-height:125%;letter-spacing:0px;word-spacing:0px"><flowRegion
       id="flowRegion3369"><rect
         id="rect3371"
         width="29.115507"
         height="46.242275"
         x="421.31851"
         y="20.338037" /></flowRegion><flowPara
       id="flowPara3373" /></flowRoot>  <path
     sodipodi:type="star"
     id="etoileRouge"
     sodipodi:sides="5"
     sodipodi:cx="98.478921"
     sodipodi:cy="77.712713"
     sodipodi:r1="36.341454"
     sodipodi:r2="18.170727"
     sodipodi:arg1="-0.60107375"
     sodipodi:arg2="0.027244776"
     inkscape:flatsided="false"
     inkscape:rounded="0"
     inkscape:randomized="0"
     d="M 128.45077,57.160593 116.6429,78.207711 127.28696,99.866679 103.62113,95.140652 86.311422,111.95674 83.492997,87.988776 62.150953,76.722723 84.0749,66.635733 88.1945,42.856841 104.56267,60.590703 Z"
     inkscape:transform-center-x="3.1780607"
     inkscape:transform-center-y="-0.30592444"
     style="fill:#ff0000" />
  <ellipse
     style="fill:#000080"
     id="ElipseBleu"
     cx="360.51849"
     cy="38.321148"
     rx="29.115507"
     ry="11.1324" />
</svg>
